<?xml version="1.0" encoding="utf-8"?>
<!-- Generator: Adobe Illustrator 16.0.0, SVG Export Plug-In . SVG Version: 6.00 Build 0)  -->
<!DOCTYPE svg PUBLIC "-//W3C//DTD SVG 1.1 Tiny//EN" "http://www.w3.org/Graphics/SVG/1.1/DTD/svg11-tiny.dtd">
<svg version="1.1" baseProfile="tiny" id="Layer_1" xmlns="http://www.w3.org/2000/svg" xmlns:xlink="http://www.w3.org/1999/xlink"
	 x="0px" y="0px" width="166.834px" height="61.667px" viewBox="0 0 166.834 61.667" xml:space="preserve">
<path fill="#6E6F71" d="M6.045,30.925c0,4.445,1.595,8.233,4.783,11.355c3.189,3.121,7.008,4.683,11.456,4.683h9.526
	c0-1.769-0.629-3.275-1.889-4.522c-1.26-1.246-2.773-1.869-4.543-1.869h-3.095c-2.653,0-4.897-0.945-6.732-2.834
	c-1.835-1.887-2.754-4.16-2.754-6.813V7.644c0-1.85-0.663-3.437-1.989-4.764C9.482,1.554,7.895,0.891,6.045,0.891v14.028H4.067
	c-0.884,0-1.643,0.316-2.271,0.945s-0.944,1.387-0.944,2.271c0,0.884,0.316,1.636,0.944,2.25s1.391,0.925,2.271,0.925h1.978V30.925z
	"/>
<path fill="#6E6F71" d="M18.228,14.919h18.931c0,1.769-0.633,3.278-1.89,4.522c-1.258,1.244-2.778,1.87-4.542,1.87H18.228
	c-0.881,0-1.644-0.311-2.271-0.925s-0.945-1.367-0.945-2.25c0-0.885,0.315-1.643,0.945-2.271
	C16.585,15.235,17.343,14.919,18.228,14.919"/>
<path fill="#6E6F71" d="M41.93,30.845c0-2.653,0.926-4.924,2.773-6.813c1.85-1.889,4.101-2.834,6.753-2.834h3.096
	c1.769,0,3.275-0.623,4.522-1.869c1.246-1.246,1.869-2.753,1.869-4.522h-9.487c-4.447,0-8.273,1.562-11.476,4.684
	c-3.202,3.122-4.804,6.907-4.804,11.355v16.118c1.85,0,3.437-0.663,4.764-1.989c1.326-1.326,1.989-2.914,1.989-4.764V30.845z"/>
<path fill="#6E6F71" d="M70.309,27.669h11.777c0,1.782-0.63,3.289-1.89,4.529c-1.259,1.239-2.773,1.862-4.542,1.862h-5.346
	c-0.885,0-1.635-0.302-2.251-0.911c-0.616-0.604-0.925-1.354-0.925-2.244c0-0.919,0.302-1.688,0.904-2.306
	C68.641,27.978,69.397,27.669,70.309,27.669"/>
<path fill="#6E6F71" d="M72.56,46.963c-4.448,0-8.267-1.562-11.456-4.683c-3.188-3.122-4.783-6.907-4.783-11.355
	s1.595-8.247,4.783-11.396c3.189-3.148,7.008-4.724,11.456-4.724h16.435c0,1.77-0.63,3.276-1.889,4.522
	c-1.26,1.246-2.774,1.869-4.543,1.869H72.56c-2.626,0-4.864,0.965-6.713,2.894c-1.849,1.93-2.773,4.208-2.773,6.834
	s0.925,4.891,2.773,6.793s4.087,2.854,6.713,2.854h3.095c1.769,0,3.283,0.623,4.542,1.869c1.26,1.247,1.89,2.754,1.89,4.522H72.56z"
	/>
<path fill="#6E6F71" d="M109.941,30.925c0-2.626-0.924-4.904-2.773-6.834c-1.849-1.929-4.087-2.894-6.712-2.894
	c-2.653,0-4.904,0.958-6.754,2.874c-1.849,1.916-2.772,4.201-2.772,6.854v9.285c0,1.85-0.664,3.438-1.99,4.764
	s-2.914,1.989-4.764,1.989V30.925c0-4.448,1.595-8.247,4.783-11.396c3.189-3.148,7.021-4.724,11.497-4.724
	c4.448,0,8.267,1.575,11.455,4.724c3.189,3.148,4.783,6.947,4.783,11.396v16.038c-1.849,0-3.437-0.663-4.763-1.989
	c-1.327-1.326-1.99-2.914-1.99-4.764V30.925z"/>
<path fill="#6E6F71" d="M144.983,17.165c-0.073,4.081-2.749,5.134-5.736,4.323c-0.988-0.334-2.019-0.485-3.064-0.485
	c-2.652,0-4.896,0.958-6.732,2.874c-1.836,1.917-2.753,4.201-2.753,6.854c0,2.653,0.917,4.924,2.753,6.814
	c1.836,1.889,4.08,2.834,6.732,2.834c2.653,0,4.904-0.945,6.753-2.834c1.598-1.633,2.505-3.55,2.723-5.752
	c0.123-1.051,0.38-28.113,0.38-30.795c1.782,0,3.289,0.629,4.528,1.889c1.24,1.26,1.862,2.775,1.862,4.542v22.216
	c0.022,0.358,0.033,0.72,0.033,1.086c0,4.449-1.601,8.234-4.803,11.355c-3.203,3.123-7.028,4.684-11.477,4.684
	s-8.267-1.561-11.456-4.684c-3.188-3.121-4.783-6.906-4.783-11.355c0-4.448,1.595-8.247,4.783-11.396
	C129.946,14.182,138.846,12.799,144.983,17.165"/>
<path fill="none" stroke="#FFFFFF" stroke-width="0.1482" stroke-linecap="round" stroke-linejoin="round" stroke-miterlimit="22.9256" d="
	M163.896,4.246c-0.781-0.782-1.862-1.266-3.056-1.266s-2.274,0.484-3.057,1.266c-0.781,0.782-1.266,1.862-1.266,3.056
	c0,1.193,0.484,2.274,1.266,3.056c0.782,0.782,1.863,1.266,3.057,1.266s2.274-0.484,3.056-1.266
	c0.782-0.782,1.267-1.863,1.267-3.056C165.162,6.108,164.678,5.028,163.896,4.246z M160.752,7.042c0.62,0,1.062-0.1,1.323-0.301
	c0.262-0.2,0.393-0.52,0.393-0.959s-0.132-0.759-0.397-0.96c-0.265-0.2-0.704-0.301-1.318-0.301h-1.279v2.521H160.752z
	 M163.398,10.125c0.032,0.064,0.049,0.126,0.049,0.185c0,0.136-0.065,0.246-0.194,0.33c-0.045,0.032-0.104,0.048-0.174,0.048
	c-0.071,0-0.138-0.018-0.199-0.053s-0.108-0.085-0.141-0.15l-1.483-2.695c-0.22,0.013-0.388,0.02-0.504,0.02h-1.279v2.443
	c0,0.109-0.036,0.205-0.107,0.286c-0.07,0.081-0.164,0.121-0.28,0.121s-0.212-0.04-0.286-0.121
	c-0.074-0.081-0.111-0.176-0.111-0.286V4.143c0-0.11,0.037-0.2,0.111-0.271c0.074-0.071,0.163-0.106,0.267-0.106h1.687
	c0.814,0,1.429,0.17,1.842,0.509c0.414,0.34,0.621,0.842,0.621,1.508c0,0.937-0.398,1.548-1.193,1.832L163.398,10.125z
	 M160.84,2.293c1.383,0,2.636,0.561,3.542,1.467s1.467,2.159,1.467,3.542c0,1.383-0.561,2.635-1.467,3.542
	c-0.906,0.906-2.159,1.467-3.542,1.467s-2.636-0.561-3.542-1.467c-0.906-0.907-1.467-2.159-1.467-3.542
	c0-1.383,0.561-2.635,1.467-3.542S159.457,2.293,160.84,2.293z"/>
<path fill="#6E6F71" d="M163.904,4.23c-0.782-0.782-1.862-1.266-3.056-1.266s-2.274,0.484-3.057,1.266
	c-0.781,0.782-1.266,1.863-1.266,3.056s0.484,2.274,1.266,3.056c0.782,0.782,1.863,1.266,3.057,1.266s2.273-0.484,3.056-1.266
	c0.782-0.782,1.267-1.863,1.267-3.056S164.687,5.012,163.904,4.23 M160.761,7.027c0.62,0,1.062-0.101,1.323-0.301
	s0.393-0.521,0.393-0.959c0-0.44-0.133-0.759-0.397-0.96s-0.704-0.301-1.318-0.301h-1.28v2.521H160.761z M163.407,10.109
	c0.032,0.065,0.049,0.126,0.049,0.184c0,0.136-0.065,0.246-0.194,0.33c-0.045,0.032-0.104,0.048-0.174,0.048
	c-0.071,0-0.138-0.018-0.199-0.053c-0.062-0.036-0.108-0.086-0.141-0.15l-1.483-2.695c-0.22,0.013-0.388,0.02-0.504,0.02h-1.28
	v2.443c0,0.109-0.035,0.205-0.106,0.286c-0.071,0.081-0.164,0.121-0.281,0.121c-0.116,0-0.211-0.04-0.286-0.121
	c-0.074-0.081-0.111-0.176-0.111-0.286V4.128c0-0.11,0.037-0.2,0.111-0.271c0.075-0.071,0.164-0.106,0.268-0.106h1.687
	c0.814,0,1.429,0.169,1.842,0.509c0.414,0.339,0.62,0.842,0.62,1.508c0,0.937-0.397,1.547-1.192,1.832L163.407,10.109z
	 M160.849,2.278c1.383,0,2.636,0.561,3.542,1.467s1.467,2.159,1.467,3.542s-0.561,2.636-1.467,3.542s-2.159,1.467-3.542,1.467
	s-2.636-0.561-3.542-1.467s-1.467-2.159-1.467-3.542s0.561-2.636,1.467-3.542S159.466,2.278,160.849,2.278z"/>
<path fill="#6E6F71" d="M149.627,58.145h0.058c1.072,0,1.957-0.854,1.957-1.928s-0.885-1.928-1.957-1.928h-8.684
	c-0.377,0-0.696,0.319-0.696,0.696c0,0.376,0.319,0.695,0.696,0.695h8.741c0.29,0,0.552,0.246,0.552,0.536
	c0,0.305-0.262,0.536-0.552,0.536h-7.684c-0.985,0-1.754,0.798-1.754,1.77v1.391c0,0.377,0.319,0.696,0.696,0.696
	c0.362,0,0.696-0.319,0.696-0.696v-1.231c0-0.29,0.202-0.493,0.449-0.537h2.885c2.088,0,3.855,1.103,5.422,2.263
	c0.145,0.115,0.304,0.202,0.492,0.202c0.377,0,0.696-0.319,0.696-0.696c0-0.261-0.188-0.463-0.392-0.623
	C150.685,58.856,150.148,58.464,149.627,58.145 M116.486,54.986c0,0.376,0.319,0.695,0.696,0.695h10.278
	c0.377,0,0.695-0.319,0.695-0.695c0-0.377-0.318-0.696-0.695-0.696h-10.278C116.806,54.29,116.486,54.609,116.486,54.986z
	 M133.114,55.826c0.116-0.145,0.334-0.391,0.551-0.391c0.218,0,0.436,0.231,0.566,0.391l3.377,4.509
	c0.131,0.174,0.334,0.275,0.551,0.275c0.377,0,0.696-0.319,0.696-0.696c0-0.188-0.087-0.361-0.203-0.492l-3.522-4.712
	c-0.334-0.449-0.885-0.71-1.465-0.71c-0.623,0-1.188,0.305-1.521,0.754l-3.32,4.465h-10.495c-0.261,0-0.449-0.174-0.449-0.362
	v-0.711h9.263c0.377,0,0.696-0.318,0.696-0.695s-0.319-0.696-0.696-0.696h-9.728c-0.638,0-0.928,0.131-0.928,0.652v1.305
	c0,1.146,0.914,1.899,1.769,1.899h10.917c0.202,0,0.405-0.102,0.536-0.261L133.114,55.826z M101.815,54.986v2.464
	c0,1.435,0.942,3.16,2.522,3.16h8.031c1.668,0,2.668-1.696,2.668-3.16v-2.464c0-0.377-0.319-0.696-0.696-0.696
	s-0.695,0.319-0.695,0.696v2.464c0,0.695-0.29,1.769-1.624,1.769h-1.377c-1.247,0-1.522-1.088-1.522-1.769v-2.464
	c0-0.377-0.318-0.696-0.696-0.696c-0.377,0-0.695,0.319-0.695,0.696v2.464c0,0.595,0.159,1.232,0.464,1.769h-3.363
	c-1.334,0-1.624-1.073-1.624-1.769v-2.464c0-0.377-0.318-0.696-0.695-0.696S101.815,54.609,101.815,54.986z M88.695,54.986
	c0,0.376,0.319,0.695,0.696,0.695H99.67c0.377,0,0.695-0.319,0.695-0.695c0-0.377-0.318-0.696-0.695-0.696H89.392
	C89.015,54.29,88.695,54.609,88.695,54.986z M99.67,60.61c0.377,0,0.695-0.319,0.695-0.696s-0.318-0.695-0.695-0.695h-9.133
	c-0.261,0-0.449-0.174-0.449-0.362v-0.711h9.263c0.377,0,0.696-0.318,0.696-0.695s-0.319-0.696-0.696-0.696h-9.727
	c-0.639,0-0.929,0.131-0.929,0.652v1.305c0,1.146,0.914,1.899,1.769,1.899H99.67z M82.114,59.914v-1.769
	c1.334,0,2.74-0.739,4.856-2.608c0.159-0.131,0.275-0.334,0.275-0.551c0-0.377-0.319-0.696-0.696-0.696
	c-0.188,0-0.348,0.087-0.492,0.202c-2.508,2.204-3.132,2.262-4.625,2.262c-1.507-0.014-2.174-0.087-4.653-2.262
	c-0.145-0.115-0.305-0.202-0.492-0.202c-0.378,0-0.696,0.319-0.696,0.696c0,0.217,0.116,0.42,0.275,0.551
	c2.16,1.884,3.406,2.608,4.856,2.608v1.769c0,0.377,0.318,0.696,0.695,0.696S82.114,60.291,82.114,59.914z M62.471,54.986
	c0,0.376,0.319,0.695,0.696,0.695h10.278c0.377,0,0.695-0.319,0.695-0.695c0-0.377-0.318-0.696-0.695-0.696H63.167
	C62.79,54.29,62.471,54.609,62.471,54.986z M73.445,60.61c0.377,0,0.695-0.319,0.695-0.696s-0.318-0.695-0.695-0.695h-9.134
	c-0.261,0-0.449-0.174-0.449-0.362v-0.711h9.264c0.377,0,0.696-0.318,0.696-0.695s-0.319-0.696-0.696-0.696h-9.728
	c-0.638,0-0.928,0.131-0.928,0.652v1.305c0,1.146,0.913,1.899,1.769,1.899H73.445z"/>
</svg>
