<?xml version="1.0" encoding="utf-8"?>
<!-- Generator: Adobe Illustrator 16.0.0, SVG Export Plug-In . SVG Version: 6.00 Build 0)  -->
<!DOCTYPE svg PUBLIC "-//W3C//DTD SVG 1.1 Tiny//EN" "http://www.w3.org/Graphics/SVG/1.1/DTD/svg11-tiny.dtd">
<svg version="1.1" baseProfile="tiny" id="Layer_1" xmlns="http://www.w3.org/2000/svg" xmlns:xlink="http://www.w3.org/1999/xlink"
	 x="0px" y="0px" width="167.932px" height="62.333px" viewBox="0 0 167.932 62.333" xml:space="preserve">
<path fill="#F1F2F2" d="M6.274,31.237c0,4.438,1.592,8.222,4.777,11.34c3.185,3.118,6.998,4.677,11.441,4.677h9.514
	c0-1.767-0.629-3.272-1.886-4.517c-1.258-1.245-2.77-1.867-4.537-1.867h-3.091c-2.649,0-4.892-0.944-6.725-2.83
	c-1.832-1.885-2.749-4.155-2.749-6.804V7.985c0-1.847-0.662-3.433-1.987-4.757C9.707,1.903,8.121,1.241,6.274,1.241v14.01H4.299
	c-0.883,0-1.64,0.316-2.268,0.944c-0.628,0.628-0.944,1.385-0.944,2.268c0,0.882,0.317,1.634,0.944,2.248
	c0.627,0.613,1.389,0.923,2.268,0.923h1.976V31.237z"/>
<path fill="#F1F2F2" d="M18.441,15.25h18.906c0,1.767-0.631,3.274-1.887,4.517c-1.256,1.242-2.774,1.867-4.536,1.867H18.441
	c-0.879,0-1.641-0.31-2.269-0.923c-0.627-0.614-0.944-1.366-0.944-2.248c0-0.883,0.315-1.64,0.944-2.268
	C16.8,15.566,17.557,15.25,18.441,15.25"/>
<path fill="#F1F2F2" d="M42.114,31.157c0-2.65,0.923-4.918,2.77-6.805c1.847-1.887,4.095-2.831,6.744-2.831h3.091
	c1.767,0,3.271-0.623,4.517-1.867c1.244-1.244,1.867-2.75,1.867-4.517h-9.475c-4.442,0-8.263,1.56-11.462,4.677
	c-3.197,3.118-4.797,6.898-4.797,11.342v16.097c1.847,0,3.433-0.662,4.757-1.987c1.324-1.325,1.987-2.91,1.987-4.757V31.157z"/>
<path fill="#F1F2F2" d="M70.455,27.985h11.763c0,1.78-0.629,3.285-1.887,4.522s-2.77,1.86-4.537,1.86h-5.339
	c-0.883,0-1.632-0.3-2.248-0.909c-0.615-0.603-0.923-1.352-0.923-2.242c0-0.917,0.301-1.687,0.903-2.302
	C68.789,28.292,69.546,27.985,70.455,27.985"/>
<path fill="#F1F2F2" d="M72.703,47.254c-4.442,0-8.256-1.559-11.441-4.677c-3.185-3.119-4.776-6.898-4.776-11.34
	c0-4.443,1.592-8.237,4.776-11.381c3.186-3.144,6.999-4.718,11.441-4.718h16.414c0,1.767-0.629,3.272-1.887,4.517
	c-1.259,1.244-2.77,1.867-4.536,1.867h-9.991c-2.621,0-4.856,0.964-6.704,2.89c-1.846,1.927-2.77,4.202-2.77,6.826
	c0,2.621,0.923,4.884,2.77,6.784c1.848,1.9,4.082,2.85,6.704,2.85h3.091c1.768,0,3.279,0.622,4.537,1.867
	c1.258,1.244,1.887,2.75,1.887,4.517H72.703z"/>
<path fill="#F1F2F2" d="M110.037,31.237c0-2.624-0.922-4.898-2.77-6.826c-1.846-1.927-4.081-2.89-6.704-2.89
	c-2.649,0-4.897,0.957-6.744,2.871s-2.77,4.195-2.77,6.845v9.273c0,1.848-0.662,3.433-1.987,4.757s-2.911,1.987-4.757,1.987V31.237
	c0-4.443,1.593-8.237,4.777-11.381c3.184-3.144,7.011-4.718,11.48-4.718c4.442,0,8.257,1.574,11.442,4.718
	c3.184,3.145,4.776,6.938,4.776,11.381v16.017c-1.847,0-3.433-0.662-4.758-1.987c-1.324-1.325-1.987-2.91-1.987-4.757V31.237z"/>
<path fill="#F1F2F2" d="M145.036,17.495c-0.073,4.074-2.747,5.126-5.729,4.316c-0.987-0.334-2.016-0.484-3.061-0.484
	c-2.65,0-4.892,0.957-6.725,2.871s-2.75,4.196-2.75,6.845s0.917,4.918,2.75,6.806c1.833,1.886,4.074,2.829,6.725,2.829
	c2.648,0,4.897-0.943,6.743-2.829c1.596-1.631,2.503-3.545,2.719-5.745c0.123-1.05,0.381-28.077,0.381-30.757
	c1.778,0,3.285,0.629,4.521,1.887c1.239,1.258,1.86,2.771,1.86,4.537v22.188c0.021,0.357,0.033,0.719,0.033,1.085
	c0,4.443-1.599,8.223-4.797,11.34s-7.02,4.677-11.461,4.677c-4.444,0-8.257-1.56-11.442-4.677c-3.184-3.118-4.776-6.897-4.776-11.34
	s1.593-8.236,4.776-11.381C130.018,14.515,138.905,13.133,145.036,17.495"/>
<path fill="#F1F2F2" d="M163.932,4.576c-0.78-0.781-1.859-1.264-3.051-1.264c-1.192,0-2.272,0.483-3.053,1.264
	c-0.782,0.781-1.265,1.86-1.265,3.053c0,1.192,0.482,2.271,1.265,3.052c0.78,0.781,1.86,1.265,3.053,1.265
	c1.191,0,2.271-0.483,3.051-1.265c0.781-0.781,1.265-1.86,1.265-3.052C165.196,6.436,164.713,5.357,163.932,4.576 M160.793,7.369
	c0.618,0,1.06-0.1,1.32-0.3c0.262-0.2,0.393-0.52,0.393-0.958c0-0.438-0.132-0.758-0.396-0.958c-0.266-0.2-0.704-0.301-1.316-0.301
	h-1.279v2.518H160.793z M163.436,10.447c0.031,0.065,0.048,0.126,0.048,0.184c0,0.136-0.064,0.246-0.193,0.33
	c-0.045,0.032-0.104,0.048-0.175,0.048s-0.137-0.017-0.198-0.053c-0.061-0.035-0.107-0.085-0.141-0.149l-1.48-2.692
	c-0.221,0.013-0.388,0.02-0.503,0.02h-1.279v2.439c0,0.11-0.035,0.205-0.106,0.286c-0.071,0.081-0.165,0.121-0.28,0.121
	c-0.116,0-0.211-0.04-0.286-0.121c-0.074-0.081-0.111-0.176-0.111-0.286V4.474c0-0.11,0.037-0.201,0.111-0.272
	c0.075-0.071,0.163-0.106,0.267-0.106h1.686c0.812,0,1.426,0.169,1.84,0.508c0.412,0.339,0.618,0.841,0.618,1.506
	c0,0.936-0.396,1.546-1.19,1.83L163.436,10.447z M160.881,2.625c1.38,0,2.631,0.561,3.536,1.466
	c0.904,0.905,1.465,2.156,1.465,3.537s-0.561,2.632-1.465,3.537c-0.905,0.905-2.156,1.465-3.536,1.465
	c-1.382,0-2.634-0.561-3.539-1.465c-0.905-0.905-1.465-2.156-1.465-3.537s0.56-2.632,1.465-3.537
	C158.247,3.186,159.499,2.625,160.881,2.625z"/>
<path fill="#F1F2F2" d="M149.672,58.422h0.059c1.071,0,1.955-0.854,1.955-1.926s-0.884-1.926-1.955-1.926h-8.673
	c-0.376,0-0.694,0.318-0.694,0.695c0,0.376,0.318,0.694,0.694,0.694h8.73c0.289,0,0.55,0.246,0.55,0.536
	c0,0.304-0.261,0.535-0.55,0.535h-7.674c-0.983,0-1.751,0.796-1.751,1.767v1.391c0,0.375,0.318,0.694,0.694,0.694
	c0.361,0,0.694-0.319,0.694-0.694v-1.231c0-0.288,0.204-0.492,0.449-0.535h2.881c2.086,0,3.852,1.101,5.415,2.259
	c0.146,0.115,0.305,0.202,0.493,0.202c0.376,0,0.695-0.319,0.695-0.694c0-0.262-0.189-0.464-0.393-0.623
	C150.729,59.13,150.192,58.741,149.672,58.422 M116.574,55.266c0,0.376,0.319,0.694,0.696,0.694h10.264
	c0.377,0,0.695-0.318,0.695-0.694c0-0.377-0.318-0.695-0.695-0.695h-10.264C116.894,54.571,116.574,54.889,116.574,55.266z
	 M133.182,56.105c0.115-0.145,0.333-0.391,0.55-0.391s0.435,0.231,0.564,0.391l3.374,4.504c0.131,0.173,0.332,0.274,0.55,0.274
	c0.377,0,0.694-0.319,0.694-0.694c0-0.188-0.086-0.362-0.202-0.492l-3.518-4.706c-0.333-0.449-0.884-0.709-1.463-0.709
	c-0.622,0-1.187,0.303-1.521,0.753l-3.315,4.459h-10.482c-0.26,0-0.448-0.174-0.448-0.363v-0.708h9.252
	c0.376,0,0.694-0.319,0.694-0.696c0-0.376-0.318-0.694-0.694-0.694h-9.715c-0.638,0-0.928,0.131-0.928,0.652v1.303
	c0,1.145,0.912,1.896,1.767,1.896h10.902c0.202,0,0.405-0.102,0.536-0.26L133.182,56.105z M101.923,55.266v2.46
	c0,1.434,0.939,3.157,2.52,3.157h8.02c1.665,0,2.665-1.693,2.665-3.157v-2.46c0-0.377-0.318-0.695-0.695-0.695
	c-0.376,0-0.695,0.318-0.695,0.695v2.46c0,0.696-0.289,1.768-1.622,1.768h-1.375c-1.244,0-1.52-1.086-1.52-1.768v-2.46
	c0-0.377-0.318-0.695-0.695-0.695s-0.695,0.318-0.695,0.695v2.46c0,0.596,0.16,1.231,0.465,1.768h-3.359
	c-1.333,0-1.622-1.071-1.622-1.768v-2.46c0-0.377-0.319-0.695-0.695-0.695S101.923,54.889,101.923,55.266z M88.819,55.266
	c0,0.376,0.318,0.694,0.695,0.694H99.78c0.375,0,0.694-0.318,0.694-0.694c0-0.377-0.319-0.695-0.694-0.695H89.515
	C89.138,54.571,88.819,54.889,88.819,55.266z M99.78,60.883c0.375,0,0.694-0.319,0.694-0.694c0-0.377-0.319-0.695-0.694-0.695
	h-9.123c-0.26,0-0.448-0.174-0.448-0.363v-0.708h9.252c0.377,0,0.694-0.319,0.694-0.696c0-0.376-0.317-0.694-0.694-0.694h-9.715
	c-0.637,0-0.927,0.131-0.927,0.652v1.303c0,1.145,0.912,1.896,1.767,1.896H99.78z M82.246,60.189v-1.767
	c1.332,0,2.736-0.738,4.85-2.606c0.16-0.13,0.275-0.333,0.275-0.55c0-0.377-0.318-0.695-0.694-0.695
	c-0.188,0-0.348,0.087-0.492,0.202c-2.505,2.201-3.128,2.259-4.619,2.259c-1.505-0.013-2.172-0.087-4.647-2.259
	c-0.145-0.115-0.304-0.202-0.492-0.202c-0.376,0-0.694,0.318-0.694,0.695c0,0.217,0.115,0.42,0.274,0.55
	c2.157,1.882,3.402,2.606,4.851,2.606v1.767c0,0.375,0.318,0.694,0.695,0.694C81.928,60.883,82.246,60.564,82.246,60.189z
	 M62.628,55.266c0,0.376,0.318,0.694,0.694,0.694h10.266c0.376,0,0.694-0.318,0.694-0.694c0-0.377-0.318-0.695-0.694-0.695H63.322
	C62.946,54.571,62.628,54.889,62.628,55.266z M73.588,60.883c0.376,0,0.694-0.319,0.694-0.694c0-0.377-0.318-0.695-0.694-0.695
	h-9.121c-0.261,0-0.449-0.174-0.449-0.363v-0.708h9.252c0.376,0,0.694-0.319,0.694-0.696c0-0.376-0.318-0.694-0.694-0.694h-9.715
	c-0.638,0-0.927,0.131-0.927,0.652v1.303c0,1.145,0.912,1.896,1.767,1.896H73.588z"/>
</svg>
